<svg xmlns="http://www.w3.org/2000/svg" width="512" height="513" fill="none" viewBox="0 0 512 513">
  <path fill="#FDFBF2" d="m135.587 138.057.733-51.979c.027-1.977-2.524-2.791-3.646-1.164l-16.32 23.647c-.231.334-.354.73-.354 1.136v51.547c0 1.976 2.559 2.755 3.66 1.115l15.588-23.215c.216-.322.334-.7.339-1.087Zm147.305 187.414-20.268 36.408c-.743 1.333.221 2.973 1.747 2.973h100.847a2 2 0 0 0 1.724-.987l21.395-36.408c.783-1.333-.178-3.013-1.725-3.013H284.639a2 2 0 0 0-1.747 1.027Zm-40.924-177.239h-94.047c-.682 0-1.317.347-1.684.921l-21.183 33.076c-.853 1.331.103 3.078 1.684 3.078h94.79c.694 0 1.337-.359 1.702-.948l20.44-33.076c.823-1.332-.135-3.051-1.702-3.051Zm152.73 253.159.711-47.676c.031-2.056-2.689-2.814-3.726-1.039l-14.633 25.038a2.004 2.004 0 0 0-.273 1.01v45.947c0 2.03 2.676 2.769 3.717 1.025l13.921-23.309a2.01 2.01 0 0 0 .283-.996Z"/>
  <path fill="#FDFBF2" d="M148.69 449h210.673a2 2 0 0 0 2-2v-65.152a2 2 0 0 0-2-2H250.908c-7.723 0-12.531-8.382-8.632-15.048l122.98-210.268c.179-.307.273-.655.273-1.01V88.393c0-2.03-2.673-2.769-3.715-1.028l-214.84 358.607c-.798 1.333.162 3.028 1.716 3.028Zm205.4-384.5H153.409a2 2 0 0 0-2 2v65.985a2 2 0 0 0 2 2h101.398c7.897 0 12.678 8.722 8.431 15.378L140.475 342.281a1.998 1.998 0 0 0-.314 1.076v77.982c0 2.03 2.676 2.768 3.718 1.025L355.807 67.526c.797-1.334-.164-3.026-1.717-3.026Z"/>
</svg>
